<svg width="106" height="106" viewBox="0 0 106 106" fill="none" xmlns="http://www.w3.org/2000/svg">
<rect width="106" height="106" fill="#772D8B"/>
<path d="M53 23.8333C40.1084 23.8333 29.6667 25.2917 29.6667 35.5V63.2083C29.6667 68.8375 34.2459 73.4167 39.875 73.4167L35.5 77.7917V79.25H70.5V77.7917L66.125 73.4167C71.7542 73.4167 76.3334 68.8375 76.3334 63.2083V35.5C76.3334 25.2917 65.8917 23.8333 53 23.8333ZM39.875 67.5833C37.4542 67.5833 35.5 65.6292 35.5 63.2083C35.5 60.7875 37.4542 58.8333 39.875 58.8333C42.2959 58.8333 44.25 60.7875 44.25 63.2083C44.25 65.6292 42.2959 67.5833 39.875 67.5833ZM50.0834 50.0833H35.5V35.5H50.0834V50.0833ZM66.125 67.5833C63.7042 67.5833 61.75 65.6292 61.75 63.2083C61.75 60.7875 63.7042 58.8333 66.125 58.8333C68.5459 58.8333 70.5 60.7875 70.5 63.2083C70.5 65.6292 68.5459 67.5833 66.125 67.5833ZM70.5 50.0833H55.9167V35.5H70.5V50.0833Z" fill="white"/>
</svg>
