<svg width="100" height="100" viewBox="0 0 100 100" fill="none" xmlns="http://www.w3.org/2000/svg">
<circle cx="50" cy="50" r="47.5" stroke="#EE2B7A" stroke-width="5"/>
<path d="M58.25 43.6667C58.25 38.8396 54.3271 34.9167 49.5 34.9167C44.6729 34.9167 40.75 38.8396 40.75 43.6667C40.75 50.2292 49.5 59.7083 49.5 59.7083C49.5 59.7083 58.25 50.2292 58.25 43.6667ZM46.5834 43.6667C46.5834 42.0625 47.8959 40.75 49.5 40.75C51.1042 40.75 52.4167 42.0625 52.4167 43.6667C52.4167 45.2708 51.1188 46.5833 49.5 46.5833C47.8959 46.5833 46.5834 45.2708 46.5834 43.6667ZM39.2917 61.1667V64.0833H59.7084V61.1667H39.2917Z" fill="white"/>
</svg>
